HIERARCHY
ROOT Hips
{
    OFFSET 0.000000 0.000000 0.000000
    CHANNELS 6 Xposition Yposition Zposition Zrotation Xrotation Yrotation
    JOINT Spine
    {
        OFFSET -0.000000 14.517291 0.000000
        CHANNELS 3 Zrotation Xrotation Yrotation
        JOINT Spine1
        {
            OFFSET -0.000000 37.558300 0.000000
            CHANNELS 3 Zrotation Xrotation Yrotation
            JOINT Neck
            {
                OFFSET -0.000000 37.404057 3.400369
                CHANNELS 3 Zrotation Xrotation Yrotation
                JOINT Head
                {
                    OFFSET -0.000000 24.785618 -3.540803
                    CHANNELS 3 Zrotation Xrotation Yrotation
                    End Site
                    {
                        OFFSET -0.000000 35.408028 0.000000
                    }
                }
            }
            JOINT LeftShoulder
            {
                OFFSET 6.992933 33.973492 -0.192664
                CHANNELS 3 Zrotation Xrotation Yrotation
                JOINT LeftArm
                {
                    OFFSET 21.527611 0.000000 0.000000
                    CHANNELS 3 Zrotation Xrotation Yrotation
                    JOINT LeftForeArm
                    {
                        OFFSET 56.353916 0.000000 0.000000
                        CHANNELS 3 Zrotation Xrotation Yrotation
                        JOINT LeftHand
                        {
                            OFFSET 47.774071 0.000000 0.000000
                            CHANNELS 3 Zrotation Xrotation Yrotation
                            End Site
                            {
                                OFFSET 26.556021 0.000000 0.000000
                            }
                        }
                    }
                }
            }
            JOINT RightShoulder
            {
                OFFSET -7.065357 33.973492 -0.192664
                CHANNELS 3 Zrotation Xrotation Yrotation
                JOINT RightArm
                {
                    OFFSET -21.527611 0.000000 0.000000
                    CHANNELS 3 Zrotation Xrotation Yrotation
                    JOINT RightForeArm
                    {
                        OFFSET -56.353916 0.000000 0.000000
                        CHANNELS 3 Zrotation Xrotation Yrotation
                        JOINT RightHand
                        {
                            OFFSET -47.774071 0.000000 0.000000
                            CHANNELS 3 Zrotation Xrotation Yrotation
                            End Site
                            {
                                OFFSET -26.556021 0.000000 0.000000
                            }
                        }
                    }
                }
            }
        }
    }
    JOINT LeftUpLeg
    {
        OFFSET 17.704014 0.000000 0.000000
        CHANNELS 3 Zrotation Xrotation Yrotation
        JOINT LeftLeg
        {
            OFFSET -0.000000 -81.181816 0.000000
            CHANNELS 3 Zrotation Xrotation Yrotation
            JOINT LeftFoot
            {
                OFFSET -0.000000 -62.821102 0.000000
                CHANNELS 3 Zrotation Xrotation Yrotation
                JOINT LeftToeBase
                {
                    OFFSET -0.000000 -11.507608 26.556021
                    CHANNELS 3 Zrotation Xrotation Yrotation
                    End Site
                    {
                        OFFSET -0.000000 0.000000 7.081605
                    }
                }
            }
        }
    }
    JOINT RightUpLeg
    {
        OFFSET -17.704014 0.000000 0.000000
        CHANNELS 3 Zrotation Xrotation Yrotation
        JOINT RightLeg
        {
            OFFSET -0.000000 -81.181816 0.000000
            CHANNELS 3 Zrotation Xrotation Yrotation
            JOINT RightFoot
            {
                OFFSET -0.000000 -62.821102 0.000000
                CHANNELS 3 Zrotation Xrotation Yrotation
                JOINT RightToeBase
                {
                    OFFSET -0.000000 -11.507608 26.556021
                    CHANNELS 3 Zrotation Xrotation Yrotation
                    End Site
                    {
                        OFFSET -0.000000 0.000000 7.081605
                    }
                }
            }
        }
    }
}
MOTION
Frames:    8
Frame Time:    0.008333
34.851891    149.842529    -11.223667    15.412209    0.898719    0.466598    16.184305    1.816166    9.519862    4.698019    -2.976146    3.390321    18.229250    -6.583379    7.989383    -15.346524    18.968681    4.907594    4.292573    5.135865    -9.777452    -47.335819    19.553905    -37.963821    -6.726590    -16.413843    -127.288528    1.916328    -29.011036    -2.182481    -12.460616    -1.171996    4.533595    29.907644    -18.159698    72.945488    5.993657    -17.228937    14.107518    11.665134    -13.838243    39.997334    -18.424900    -30.786148    -22.343033    -15.775206    19.895031    -14.354673    -1.533059    9.386077    38.064510    0.000000    0.000000    0.000000    -26.496197    0.964853    -25.672165    2.073537    47.148571    -10.460052    16.165016    -38.830860    -4.145741    0.000000    0.000000    0.000000    
34.781731    149.851776    -11.268139    15.327212    0.913328    0.528794    16.157112    1.812060    9.493593    4.698138    -2.974400    3.381134    18.257654    -6.584526    7.986096    -15.371284    18.960152    4.897360    4.290550    5.146920    -9.776408    -47.338383    19.520023    -37.997822    -6.730072    -16.416544    -127.274231    1.955111    -29.016466    -2.179552    -12.444346    -1.172403    4.518017    29.918552    -18.166224    72.949463    6.021384    -17.203838    14.083818    11.636185    -13.824528    40.003326    -18.361240    -30.802120    -22.398466    -15.755120    19.896347    -14.381618    -1.548148    9.395234    38.092670    0.000000    0.000000    0.000000    -26.378307    1.008802    -25.706099    2.098855    47.077675    -10.424555    16.138016    -38.832050    -4.141637    0.000000    0.000000    0.000000    
34.708584    149.862686    -11.315574    15.241130    0.941672    0.590392    16.124422    1.796668    9.474964    4.702424    -2.974695    3.374214    18.224493    -6.605439    7.958339    -15.315034    18.987930    4.874557    4.269782    5.162648    -9.762215    -47.305698    19.522667    -38.051125    -6.724016    -16.467148    -127.250862    1.955064    -29.045378    -2.164857    -12.453055    -1.165925    4.490477    29.911198    -18.128838    72.936165    6.009370    -17.240273    14.104642    11.664827    -13.850706    40.005634    -18.299353    -30.834072    -22.457077    -15.728724    19.901094    -14.368484    -1.582108    9.395123    38.067383    0.000000    0.000000    0.000000    -26.255613    1.035167    -25.739759    2.133372    47.005894    -10.378679    16.089436    -38.838459    -4.193743    0.000000    0.000000    0.000000    
34.635162    149.872437    -11.369339    15.146873    0.977863    0.653146    16.106005    1.779839    9.455112    4.683462    -2.981758    3.366521    18.157825    -6.627156    7.920128    -15.201129    19.011602    4.845731    4.259693    5.160572    -9.767827    -47.296154    19.534578    -38.061062    -6.695702    -16.531296    -127.225571    1.957471    -29.046507    -2.176457    -12.453993    -1.173897    4.480212    29.901417    -18.073524    72.902695    5.976286    -17.270584    14.110727    11.705450    -13.860233    40.032856    -18.233002    -30.876852    -22.505514    -15.695798    19.915121    -14.394147    -1.605622    9.397589    38.062710    0.000000    0.000000    0.000000    -26.119522    1.044055    -25.787218    2.137722    46.944130    -10.308296    16.026964    -38.841625    -4.248417    0.000000    0.000000    0.000000    
34.552410    149.889511    -11.417635    15.045496    1.004107    0.709253    16.085455    1.769135    9.436842    4.670781    -2.966382    3.358852    18.073410    -6.637188    7.895807    -15.072012    18.988077    4.830044    4.253362    5.152810    -9.754522    -47.288567    19.544580    -38.084461    -6.678138    -16.594973    -127.209610    1.896717    -29.068439    -2.214708    -12.468356    -1.187087    4.461502    29.940083    -18.058523    72.899445    5.982624    -17.236485    14.100424    11.641037    -13.850079    40.021919    -18.151083    -30.908226    -22.535734    -15.659707    19.925488    -14.400851    -1.635088    9.400209    38.037460    0.000000    0.000000    0.000000    -25.972532    1.052400    -25.829268    2.164649    46.889076    -10.250712    15.902297    -38.838043    -4.367833    0.000000    0.000000    0.000000    
34.472416    149.904709    -11.472156    14.946477    1.051555    0.761258    16.042685    1.737160    9.430580    4.692545    -2.957193    3.355204    18.014174    -6.628866    7.863984    -15.039989    18.969477    4.807328    4.210720    5.148716    -9.777280    -47.269863    19.549320    -38.082439    -6.628202    -16.684986    -127.207977    1.886793    -29.059994    -2.196775    -12.501887    -1.178436    4.437974    29.972012    -18.050030    72.920631    5.985919    -17.238943    14.061933    11.584732    -13.870218    40.030056    -18.074257    -30.962154    -22.588236    -15.627405    19.932165    -14.417881    -1.679177    9.395269    38.050068    0.000000    0.000000    0.000000    -25.828568    1.037165    -25.844652    2.216325    46.834782    -10.227401    15.806540    -38.843975    -4.475262    0.000000    0.000000    0.000000    
34.383781    149.921280    -11.522934    14.836544    1.099137    0.807732    16.016563    1.700676    9.421228    4.664816    -2.939597    3.348716    18.032679    -6.609807    7.846501    -15.072825    18.934221    4.784091    4.186782    5.190811    -9.801867    -47.217480    19.517937    -38.101368    -6.573523    -16.791327    -127.214073    1.813000    -29.059822    -2.227227    -12.492772    -1.145930    4.427815    29.950335    -18.027050    72.909271    5.948221    -17.284229    14.065972    11.651616    -13.883935    40.066402    -17.981022    -31.016773    -22.647486    -15.604705    19.932802    -14.427613    -1.713690    9.392129    38.075684    0.000000    0.000000    0.000000    -25.666174    1.013268    -25.881907    2.259715    46.777096    -10.246037    15.694504    -38.835697    -4.571691    0.000000    0.000000    0.000000    
34.293407    149.941467    -11.570829    14.723898    1.138546    0.854636    15.973447    1.679092    9.411984    4.664117    -2.934998    3.344036    17.986013    -6.582004    7.818919    -15.039256    18.873699    4.760330    4.151473    5.208449    -9.799794    -47.190857    19.507113    -38.119591    -6.564582    -16.837637    -127.226570    1.873957    -29.090919    -2.263012    -12.510377    -1.137709    4.433499    29.969048    -18.022776    72.878464    5.961160    -17.280560    14.074163    11.626457    -13.895153    40.031067    -17.884853    -31.061630    -22.711634    -15.572351    19.933201    -14.450854    -1.752492    9.383944    38.094963    0.000000    0.000000    0.000000    -25.503197    1.013106    -25.893549    2.329571    46.694782    -10.342388    15.635664    -38.803463    -4.563231    0.000000    0.000000    0.000000    
